<svg xmlns="http://www.w3.org/2000/svg" fill="none" viewBox="-5.94 -5.94 190 190" height="190" width="190" id="Location-Pin-3--Streamline-Plump.svg"><desc>Location Pin 3 Streamline Icon: https://streamlinehq.com</desc><g id="Location-Pin-3--Streamline-Plump.svg"><path id="Rectangle 180" stroke="#ffffff" stroke-linecap="round" stroke-linejoin="round" d="m139.15625 123.42231666666666 2.152283333333333 0.11874666666666667c4.508662500000001 0.2523366666666667 8.5386275 2.7200408333333335 10.568453333333332 6.7537166666666675a124.39084416666667 124.39084416666667 0 0 1 8.991349166666668 23.675116666666668c1.6327666666666667 6.148850833333333 -2.8758958333333333 11.837558333333334 -9.2288425 12.097316666666666C141.004245 166.50509166666666 121.80439333333332 166.9875 89.06 166.9875c-32.744393333333335 0 -51.944245 -0.4824083333333334 -62.57949333333334 -0.9165758333333334 -6.352946666666667 -0.25975833333333337 -10.857898333333335 -5.9558875 -9.2288425 -12.097316666666666a124.39826583333335 124.39826583333335 0 0 1 8.991349166666668 -23.6788275c2.0298258333333337 -4.033675833333334 6.0597908333333335 -6.50138 10.568453333333332 -6.7537166666666675l2.152283333333333 -0.11503583333333334" stroke-width="11.88"></path><path id="Ellipse 517" stroke="#ffffff" stroke-linecap="round" stroke-linejoin="round" d="M144.7225 67.05475833333334c0 39.44615833333334 -39.88403666666667 67.75981666666668 -52.12978666666667 75.52659083333334a6.553331666666667 6.553331666666667 0 0 1 -7.065426666666666 0C73.28153666666667 134.81828583333333 33.3975 106.50091666666667 33.3975 67.05475833333334 33.3975 36.169492500000004 58.31945666666667 11.1325 89.06 11.1325c30.74054333333334 0 55.6625 25.0369925 55.6625 55.92225833333334Z" stroke-width="11.88"></path><path id="Ellipse 27" stroke="#ffffff" stroke-linecap="round" stroke-linejoin="round" d="M111.325 66.795a22.265 22.265 0 1 1 -44.53 0 22.265 22.265 0 0 1 44.53 0Z" stroke-width="11.88"></path></g></svg>